<svg width="24" height="24" viewBox="0 0 24 24" fill="none" xmlns="http://www.w3.org/2000/svg">
<path d="M15.282 1.7747C15.4645 2.00101 15.5575 2.30645 15.7427 2.91657L19.8032 16.2546C18.2782 15.4628 16.6412 14.9086 14.9488 14.6111L12.3055 5.67751C12.2846 5.6061 12.2411 5.54338 12.1815 5.49879C12.122 5.4542 12.0496 5.43014 11.9752 5.43022C11.9008 5.43031 11.8284 5.45453 11.769 5.49926C11.7095 5.54399 11.6662 5.6068 11.6455 5.67826L9.03377 14.6066C7.33407 14.9031 5.68981 15.4581 4.1582 16.2525L8.23783 2.91376C8.42458 2.30438 8.51758 1.99951 8.69983 1.7732C8.86079 1.57385 9.07013 1.41905 9.30789 1.32357C9.57658 1.21576 9.89589 1.21576 10.5332 1.21576H13.4475C14.0854 1.21576 14.4047 1.21576 14.6743 1.32432C14.9121 1.42004 15.1212 1.5751 15.282 1.7747Z" fill="url(#paint0_linear_78_56)"/>
<path d="M15.7676 16.8889C15.0982 17.4617 13.7621 17.8521 12.2233 17.8521C10.3352 17.8521 8.75174 17.2639 8.33193 16.4728C8.18193 16.9262 8.14818 17.4448 8.14818 17.7767C8.14818 17.7767 8.04937 19.4032 9.18093 20.5348C9.18091 20.3951 9.2084 20.2569 9.26184 20.1278C9.31528 19.9988 9.39362 19.8816 9.49238 19.7828C9.59114 19.6841 9.70839 19.6057 9.83743 19.5523C9.96647 19.4989 10.1048 19.4714 10.2444 19.4715C11.2513 19.4715 11.2507 20.3496 11.25 21.063V21.126C11.25 22.2084 11.9113 23.1358 12.8518 23.5269C12.7067 23.2292 12.6316 22.9023 12.6321 22.5711C12.6321 21.5383 13.2377 21.1545 13.9423 20.7077C14.5027 20.3526 15.1252 19.9577 15.5537 19.1661C15.785 18.7395 15.9059 18.2619 15.9052 17.7767C15.9054 17.4754 15.8589 17.176 15.7676 16.8889Z" fill="#FF5D01"/>
<path d="M15.7676 16.8889C15.0982 17.4617 13.7621 17.8521 12.2233 17.8521C10.3352 17.8521 8.75174 17.2639 8.33193 16.4728C8.18193 16.9262 8.14818 17.4448 8.14818 17.7767C8.14818 17.7767 8.04937 19.4032 9.18093 20.5348C9.18091 20.3951 9.2084 20.2569 9.26184 20.1278C9.31528 19.9988 9.39362 19.8816 9.49238 19.7828C9.59114 19.6841 9.70839 19.6057 9.83743 19.5523C9.96647 19.4989 10.1048 19.4714 10.2444 19.4715C11.2513 19.4715 11.2507 20.3496 11.25 21.063V21.126C11.25 22.2084 11.9113 23.1358 12.8518 23.5269C12.7067 23.2292 12.6316 22.9023 12.6321 22.5711C12.6321 21.5383 13.2377 21.1545 13.9423 20.7077C14.5027 20.3526 15.1252 19.9577 15.5537 19.1661C15.785 18.7395 15.9059 18.2619 15.9052 17.7767C15.9054 17.4754 15.8589 17.176 15.7676 16.8889Z" fill="url(#paint1_linear_78_56)"/>
<defs>
<linearGradient id="paint0_linear_78_56" x1="16.5562" y1="0.508378" x2="11.9804" y2="16.2544" gradientUnits="userSpaceOnUse">
<stop stop-color="#000014"/>
<stop offset="1" stop-color="#150426"/>
</linearGradient>
<linearGradient id="paint1_linear_78_56" x1="18.7815" y1="12.2334" x2="14.8186" y2="20.5296" gradientUnits="userSpaceOnUse">
<stop stop-color="#FF1639"/>
<stop offset="1" stop-color="#FF1639" stop-opacity="0"/>
</linearGradient>
</defs>
</svg>
