<svg width="24" height="24" viewBox="0 0 24 24" fill="none" xmlns="http://www.w3.org/2000/svg">
<path fill-rule="evenodd" clip-rule="evenodd" d="M21.6229 11.11L12.8899 2.376C12.6481 2.1351 12.3207 1.99983 11.9794 1.99983C11.6381 1.99983 11.3107 2.1351 11.0689 2.376L9.25591 4.191L11.5559 6.491C11.8271 6.39903 12.1187 6.38502 12.3974 6.45055C12.6762 6.51609 12.931 6.65854 13.1328 6.8617C13.3346 7.06486 13.4753 7.32059 13.539 7.59978C13.6027 7.87897 13.5867 8.17043 13.4929 8.441L15.7099 10.658C16.0412 10.5441 16.4015 10.5472 16.7308 10.6668C17.0601 10.7864 17.3384 11.0152 17.5195 11.3151C17.7005 11.615 17.7733 11.9679 17.7257 12.315C17.6781 12.662 17.513 12.9823 17.2579 13.2224C17.0028 13.4625 16.6731 13.6079 16.3238 13.6344C15.9745 13.6609 15.6266 13.5669 15.3382 13.368C15.0498 13.1692 14.8383 12.8775 14.7389 12.5415C14.6395 12.2056 14.6582 11.8458 14.7919 11.522L12.7239 9.454V14.895C13.0381 15.0505 13.2896 15.309 13.4363 15.6273C13.583 15.9457 13.6162 16.3048 13.5303 16.6447C13.4444 16.9846 13.2446 17.2847 12.9641 17.4952C12.6837 17.7056 12.3397 17.8135 11.9893 17.801C11.639 17.7885 11.3035 17.6563 11.0388 17.4264C10.7741 17.1965 10.5962 16.8829 10.5348 16.5377C10.4733 16.1926 10.532 15.8368 10.7011 15.5297C10.8702 15.2226 11.1394 14.9827 11.4639 14.85V9.36C11.2766 9.28354 11.1063 9.1707 10.9629 9.02799C10.8195 8.88529 10.7058 8.71556 10.6284 8.52863C10.5511 8.3417 10.5115 8.14128 10.5121 7.93897C10.5127 7.73666 10.5534 7.53647 10.6319 7.35L8.36491 5.081L2.37691 11.068C2.1357 11.3098 2.00024 11.6374 2.00024 11.979C2.00024 12.3206 2.1357 12.6482 2.37691 12.89L11.1099 21.622C11.3517 21.8629 11.6791 21.9982 12.0204 21.9982C12.3617 21.9982 12.6891 21.8629 12.9309 21.622L21.6229 12.93C21.8641 12.6882 21.9996 12.3606 21.9996 12.019C21.9996 11.6774 21.8641 11.3498 21.6229 11.108" fill="#010409"/>
</svg>
