<svg width="24" height="28" viewBox="0 0 24 28" fill="none" xmlns="http://www.w3.org/2000/svg">
<path d="M20.3168 13.8259C20.3168 13.2634 20.1109 12.724 19.7443 12.3263C19.3778 11.9286 18.8807 11.7052 18.3623 11.7052C18.2923 11.7052 18.2238 11.709 18.1568 11.7166L20.8418 3.12552H9.4328L12.1133 11.7092C12.0743 11.7092 12.0345 11.7052 11.9948 11.7052C11.5286 11.7056 11.078 11.8868 10.7241 12.216C10.3702 12.5452 10.1363 13.0007 10.0646 13.5005C9.99296 14.0003 10.0882 14.5114 10.3332 14.9417C10.5782 15.372 10.9568 15.6932 11.4008 15.8473C10.9849 16.6239 10.4672 17.3308 9.86405 17.946C9.07941 18.7612 8.14648 19.3896 7.12505 19.7908C6.55293 19.4964 6.10549 18.9768 5.87357 18.3375C5.64165 17.6982 5.64263 16.9871 5.8763 16.3486C5.9343 16.2021 5.9918 16.0545 6.0488 15.9059C6.4848 15.7945 6.87238 15.5242 7.14676 15.1401C7.42115 14.756 7.56572 14.2813 7.55631 13.7954C7.5469 13.3095 7.38408 12.8418 7.09506 12.4705C6.80605 12.0993 6.40834 11.8468 5.96842 11.7555C5.52849 11.6641 5.07299 11.7394 4.67805 11.9686C4.28311 12.1979 3.97264 12.5673 3.79854 13.015C3.62444 13.4628 3.59726 13.9619 3.72153 14.4288C3.8458 14.8957 4.11399 15.3022 4.4813 15.5804C3.85634 16.8075 3.38015 18.1171 3.06455 19.4767C2.79905 21.2141 3.06455 23.0573 4.4483 24.0998C7.6733 26.5257 11.175 22.5959 14.8665 21.6088C16.2045 21.2508 17.673 21.3085 18.8513 20.5672C19.2773 20.3046 19.6447 19.9432 19.9271 19.5088C20.2096 19.0744 20.4003 18.5778 20.4855 18.0542C20.5638 17.5557 20.549 17.0452 20.4419 16.553C20.3348 16.0608 20.1377 15.5969 19.8623 15.1889C20.1563 14.8077 20.3172 14.3263 20.3168 13.8291V13.8259ZM13.95 13.8373V13.8299C13.9506 13.465 13.8642 13.1061 13.6991 12.7881C13.534 12.4701 13.296 12.2039 13.008 12.0152L15.141 7.32705L17.2785 12.0583C17.0104 12.2517 16.7905 12.5141 16.6386 12.8221C16.4866 13.1301 16.4074 13.4741 16.4078 13.8234V13.8698L13.95 13.8373Z" fill="#99425B"/>
<path d="M20.7945 13.8259C20.7934 13.2111 20.5948 12.6159 20.2331 12.1428C19.8713 11.6696 19.3689 11.348 18.8123 11.2332L21.5078 2.60713H8.76679L11.4668 11.2503C10.9952 11.3642 10.5656 11.628 10.2328 12.008C9.89996 12.388 9.67902 12.867 9.59815 13.3838C9.51727 13.9006 9.58013 14.4319 9.7787 14.9098C9.97727 15.3877 10.3026 15.7905 10.713 16.067C10.3732 16.6132 9.97881 17.117 9.53704 17.5692C8.85259 18.2805 8.04781 18.8415 7.16704 19.2212C6.7541 18.9604 6.44112 18.5475 6.28504 18.0575C6.12896 17.5675 6.14014 17.033 6.31654 16.5512L6.34654 16.4755L6.40204 16.3331C6.90168 16.145 7.33124 15.7854 7.62567 15.3088C7.92011 14.8321 8.06338 14.2643 8.03381 13.6914C8.00424 13.1185 7.80342 12.5716 7.46178 12.1336C7.12013 11.6956 6.65625 11.3903 6.14038 11.2639C5.62451 11.1376 5.08475 11.197 4.60281 11.4333C4.12087 11.6696 3.72301 12.0698 3.46946 12.5734C3.21592 13.077 3.1205 13.6565 3.19765 14.2241C3.2748 14.7918 3.52032 15.3168 3.89704 15.7195C3.81554 15.9072 3.73079 16.0987 3.64279 16.294C3.15651 17.2642 2.80281 18.3058 2.59279 19.3864C2.24404 21.665 2.80654 23.4903 4.17604 24.5197C4.91224 25.091 5.79544 25.3965 6.70054 25.3929C8.29954 25.3929 9.91729 24.5213 11.5005 23.6685C12.6066 23.0156 13.7737 22.4926 14.982 22.1085C15.4277 21.9972 15.8783 21.9105 16.332 21.8489C17.2928 21.765 18.2296 21.481 19.0913 21.0123C19.5773 20.7111 19.9962 20.2977 20.3186 19.8013C20.6409 19.3048 20.8587 18.7376 20.9565 18.1397C21.1158 17.124 20.932 16.0801 20.439 15.1995C20.6734 14.7865 20.796 14.3108 20.7945 13.8259ZM19.8398 13.8259C19.8398 14.1429 19.7531 14.4529 19.5908 14.7165C19.4284 14.9801 19.1977 15.1856 18.9277 15.307C18.6577 15.4283 18.3607 15.46 18.074 15.3982C17.7874 15.3363 17.5242 15.1836 17.3175 14.9594C17.1109 14.7352 16.9702 14.4496 16.9132 14.1386C16.8562 13.8276 16.8854 13.5053 16.9973 13.2124C17.1091 12.9194 17.2985 12.669 17.5414 12.4929C17.7844 12.3167 18.0701 12.2227 18.3623 12.2227C18.754 12.2234 19.1294 12.3925 19.4064 12.693C19.6833 12.9935 19.8392 13.4009 19.8398 13.8259ZM20.175 3.64307L17.7945 11.26C17.6925 11.2863 17.5922 11.3203 17.4945 11.3617L15.1433 6.15357L12.7845 11.3308C12.682 11.2917 12.577 11.2607 12.4703 11.238L10.098 3.64307H20.175ZM11.9948 12.2227C12.287 12.2227 12.5727 12.3167 12.8156 12.4929C13.0586 12.669 13.248 12.9194 13.3598 13.2124C13.4717 13.5053 13.5009 13.8276 13.4439 14.1386C13.3869 14.4496 13.2462 14.7352 13.0395 14.9594C12.8329 15.1836 12.5696 15.3363 12.283 15.3982C11.9964 15.46 11.6994 15.4283 11.4294 15.307C11.1594 15.1856 10.9286 14.9801 10.7663 14.7165C10.6039 14.4529 10.5173 14.1429 10.5173 13.8259C10.5173 13.4007 10.673 12.9929 10.95 12.6923C11.2271 12.3916 11.6029 12.2227 11.9948 12.2227ZM5.60254 12.2382C5.89476 12.2382 6.18042 12.3322 6.4234 12.5084C6.66637 12.6845 6.85574 12.9349 6.96757 13.2278C7.0794 13.5208 7.10866 13.8431 7.05165 14.1541C6.99464 14.4651 6.85392 14.7507 6.64729 14.9749C6.44066 15.1991 6.17739 15.3518 5.89079 15.4137C5.60418 15.4755 5.3071 15.4438 5.03713 15.3224C4.76715 15.2011 4.53639 14.9956 4.37404 14.732C4.21169 14.4683 4.12504 14.1584 4.12504 13.8413C4.12504 13.4163 4.2806 13.0086 4.55752 12.708C4.83445 12.4074 5.21081 12.2384 5.60254 12.2382ZM20.0153 17.9623C19.9412 18.4109 19.777 18.8363 19.5345 19.2084C19.292 19.5805 18.9771 19.8902 18.612 20.1155C17.8547 20.5149 17.0345 20.7551 16.1948 20.8235C15.7208 20.8976 15.231 20.9741 14.7518 21.1026C13.476 21.5036 12.2439 22.0528 11.0768 22.7408C8.70379 24.0192 6.65179 25.1235 4.72279 23.6709C3.30754 22.6065 3.37279 20.6372 3.53779 19.5581C3.73193 18.5757 4.05604 17.629 4.50004 16.7473L4.70254 16.2924C4.90423 16.379 5.11554 16.4365 5.33104 16.4633C5.13938 17.1949 5.19236 17.9764 5.48059 18.6696C5.76883 19.3629 6.27375 19.9232 6.90604 20.2514L7.08979 20.354L7.28404 20.2783C8.36811 19.8547 9.35837 19.1894 10.191 18.3252C10.7417 17.7639 11.225 17.1296 11.6295 16.4373C12.1479 16.5228 12.6778 16.4242 13.1403 16.1562C13.6028 15.8882 13.973 15.4651 14.1957 14.95C14.4183 14.435 14.4816 13.8557 14.376 13.2984C14.2703 12.7412 14.0015 12.236 13.6095 11.8581L15.138 8.50457L16.6823 11.9224C16.2429 12.3819 15.9789 13.0039 15.9428 13.6648C15.9067 14.3258 16.101 14.9772 16.4873 15.4898C16.8735 16.0024 17.4234 16.3386 18.0275 16.4315C18.6317 16.5244 19.246 16.3673 19.7483 15.9913C20.027 16.6009 20.1202 17.2907 20.0145 17.9615L20.0153 17.9623Z" fill="white"/>
</svg>
