<svg width="24" height="24" viewBox="0 0 24 24" fill="none" xmlns="http://www.w3.org/2000/svg">
<path d="M21.7 6.53001C21.71 6.55001 21.71 6.58001 21.71 6.61001V10.9C21.71 11 21.65 11.12 21.56 11.17L17.95 13.25V17.36C17.95 17.47 17.9 17.57 17.8 17.63L10.28 21.96C10.26 21.97 10.24 22 10.22 22H10C10 22 10 21.97 9.96004 21.96L2.44004 17.63C2.39428 17.6013 2.35653 17.5615 2.33031 17.5143C2.30408 17.4671 2.29023 17.414 2.29004 17.36V4.50001C2.29004 4.45001 2.29004 4.42001 2.30004 4.40001C2.30004 4.39001 2.31004 4.38001 2.31004 4.37001C2.31004 4.35001 2.32004 4.34001 2.33004 4.32001C2.33004 4.31001 2.34004 4.30001 2.35004 4.29001L2.38004 4.26001L2.41004 4.23001C2.42004 4.22001 2.43004 4.21001 2.44004 4.21001L6.20004 2.04001C6.30004 2.00001 6.42004 2.00001 6.50004 2.04001L10.28 4.21001C10.29 4.22001 10.3 4.22001 10.31 4.23001L10.34 4.26001L10.37 4.29001C10.38 4.30001 10.39 4.31001 10.39 4.32001C10.4 4.34001 10.41 4.35001 10.41 4.37001C10.41 4.38001 10.42 4.39001 10.42 4.40001C10.43 4.43001 10.43 4.45001 10.43 4.50001V12.5L13.57 10.72V6.61001C13.57 6.58001 13.57 6.55001 13.58 6.53001L13.59 6.50001C13.59 6.50001 13.6 6.47001 13.61 6.45001C13.61 6.44001 13.62 6.43001 13.63 6.42001L13.66 6.39001L13.69 6.36001C13.7 6.35001 13.71 6.34001 13.72 6.34001L17.5 4.17001C17.58 4.11001 17.7 4.11001 17.8 4.17001L21.56 6.34001C21.57 6.34001 21.58 6.35001 21.59 6.36001L21.62 6.39001L21.65 6.42001C21.66 6.43001 21.66 6.44001 21.67 6.45001C21.68 6.47001 21.68 6.50001 21.69 6.50001C21.7 6.50001 21.7 6.50001 21.7 6.53001ZM21.09 10.72V7.15001L17.95 8.95001V12.5L21.09 10.72ZM17.33 17.18V13.6L10.43 17.54V21.15L17.33 17.18ZM2.91004 5.00001V17.18L9.81004 21.15V17.54L6.21004 15.5H6.20004C6.19004 15.5 6.18004 15.5 6.17004 15.47C6.16004 15.47 6.15004 15.46 6.14004 15.45L6.11004 15.42C6.10004 15.41 6.10004 15.4 6.09004 15.39C6.08004 15.37 6.08004 15.36 6.07004 15.35C6.07004 15.33 6.06004 15.32 6.06004 15.31C6.05004 15.3 6.05004 15.28 6.05004 15.27V6.82001L2.91004 5.00001ZM6.36004 2.68001L3.23004 4.50001L6.36004 6.28001L9.50004 4.50001L6.36004 2.68001ZM9.81004 12.88V5.00001L6.67004 6.82001V14.69L9.81004 12.88ZM17.64 4.80001L14.5 6.61001L17.64 8.41001L20.77 6.61001L17.64 4.80001ZM17.33 8.95001L14.19 7.15001V10.72L17.33 12.5V8.95001ZM10.12 17L17 13.06L13.88 11.26L7.00004 15.23L10.12 17Z" fill="#EB4432"/>
</svg>
