<svg width="80" height="79" viewBox="0 0 80 79" fill="none" xmlns="http://www.w3.org/2000/svg">
<mask id="mask0_78_42" style="mask-type:luminance" maskUnits="userSpaceOnUse" x="0" y="0" width="80" height="79">
<path d="M0 0H80V78.1007H0V0Z" fill="white"/>
</mask>
<g mask="url(#mask0_78_42)">
<path d="M37.38 0.0199319C37.2067 0.0362029 36.66 0.0915242 36.1667 0.12732C24.8067 1.12961 14.1667 7.11408 7.42 16.3137C3.69665 21.3645 1.27495 27.217 0.36 33.3754C0.04 35.5232 0 36.1545 0 39.0638C0 41.973 0.04 42.6076 0.36 44.7521C2.53333 59.4187 13.2267 71.7391 27.7233 76.3048C30.32 77.1216 33.0567 77.678 36.1667 78.0165C37.38 78.1466 42.62 78.1466 43.8333 78.0165C49.2033 77.434 53.7567 76.1355 58.2433 73.8999C58.9333 73.5582 59.0667 73.4638 58.9733 73.389C56.7787 70.5634 54.6064 67.7213 52.4567 64.863L46.06 56.4249L38.0467 44.8432C35.3804 40.9695 32.6892 37.1121 29.9733 33.2713C29.9433 33.2615 29.9133 38.4064 29.8967 44.6935C29.8733 55.6927 29.8633 56.1353 29.7233 56.3956C29.5858 56.6988 29.3424 56.9444 29.0367 57.0887C28.7867 57.2124 28.57 57.2352 27.3867 57.2352H26.0333L25.6733 57.0139C25.4506 56.8766 25.2698 56.6832 25.15 56.4542L24.9833 56.1125L25 40.8047L25.0233 25.4905L25.2667 25.1911C25.4282 25.0017 25.625 24.8438 25.8467 24.7258C26.1667 24.5728 26.29 24.5598 27.6467 24.5598C29.24 24.5598 29.5067 24.6184 29.92 25.061C30.0367 25.1846 34.3767 31.5693 39.57 39.2558L55.35 62.5948L61.6833 71.9604L62.0067 71.7554C65.0551 69.7777 67.8185 67.4104 70.2233 64.7166C75.2634 59.0842 78.5329 52.1525 79.64 44.7521C79.96 42.6043 80 41.973 80 39.0638C80 36.1545 79.96 35.5232 79.64 33.3754C77.4667 18.712 66.7733 6.38839 52.2767 1.82276C49.5673 0.981772 46.7774 0.411533 43.95 0.120812C43.1967 0.0427113 38.03 -0.0418978 37.3833 0.0231861M53.76 23.6486C53.9462 23.7396 54.112 23.8659 54.2476 24.0201C54.3833 24.1743 54.4861 24.3533 54.55 24.5468C54.61 24.742 54.6267 28.9888 54.61 38.5561L54.5867 52.2823L52.11 48.5725L49.6233 44.8627V34.8854C49.6233 28.4323 49.6533 24.8071 49.7 24.6314C49.7558 24.4283 49.8531 24.2383 49.986 24.0728C50.1189 23.9072 50.2846 23.7696 50.4733 23.6682C50.7967 23.5055 50.9133 23.4924 52.14 23.4924C53.2967 23.4924 53.5 23.5087 53.76 23.6454" fill="#424242"/>
</g>
</svg>
