<svg width="25" height="24" viewBox="0 0 25 24" fill="none" xmlns="http://www.w3.org/2000/svg">
<path d="M11.674 22.555C11.93 22.694 12.205 22.773 12.5 22.773C12.795 22.773 13.09 22.693 13.326 22.595L21.174 18.023C21.685 17.726 22 17.172 22 16.578V7.45401C22 6.86101 21.685 6.30601 21.174 6.01001L13.326 1.43801C13.0719 1.30198 12.7882 1.2308 12.5 1.2308C12.2118 1.2308 11.9281 1.30198 11.674 1.43801L3.826 6.01001C3.57414 6.15752 3.36533 6.36847 3.2204 6.62184C3.07548 6.8752 2.99948 7.16212 3 7.45401V16.578C3 17.172 3.315 17.726 3.826 18.023L5.891 19.211C6.894 19.705 7.249 19.705 7.701 19.705C9.176 19.705 10.021 18.795 10.021 17.231V8.22601C10.0202 8.16373 9.9953 8.1042 9.95144 8.05997C9.90759 8.01575 9.84827 7.9903 9.786 7.98901H8.783C8.72056 7.99004 8.66098 8.01538 8.61692 8.05963C8.57286 8.10388 8.54777 8.16356 8.547 8.22601V17.231C8.547 17.924 7.819 18.617 6.658 18.023L4.515 16.776C4.435 16.736 4.397 16.638 4.397 16.558V7.43501C4.397 7.35501 4.436 7.25601 4.515 7.21701L12.363 2.66501C12.421 2.62501 12.52 2.62501 12.598 2.66501L20.447 7.21701C20.525 7.25701 20.565 7.33601 20.565 7.43501V16.558C20.565 16.658 20.525 16.736 20.447 16.776L12.598 21.348C12.539 21.388 12.441 21.388 12.362 21.348L10.357 20.14C10.298 20.1 10.219 20.08 10.16 20.12C9.61 20.437 9.511 20.476 8.98 20.654C8.862 20.694 8.666 20.773 9.059 20.991L11.674 22.555ZM10.789 13.57C10.789 14.916 11.497 16.499 14.939 16.499C17.417 16.499 18.853 15.509 18.853 13.768C18.853 12.066 17.712 11.61 15.293 11.294C12.853 10.977 12.598 10.799 12.598 10.225C12.598 9.75001 12.815 9.11701 14.624 9.11701C16.237 9.11701 16.846 9.47301 17.083 10.561C17.0942 10.6105 17.1215 10.6549 17.1606 10.6873C17.1996 10.7196 17.2483 10.7382 17.299 10.74H18.341C18.401 10.74 18.459 10.7 18.499 10.66C18.5372 10.6085 18.5579 10.5461 18.558 10.482C18.401 8.58201 17.162 7.71201 14.644 7.71201C12.402 7.71201 11.064 8.66201 11.064 10.265C11.064 11.986 12.402 12.461 14.545 12.679C17.122 12.937 17.319 13.313 17.319 13.827C17.319 14.717 16.611 15.094 14.959 15.094C12.874 15.094 12.421 14.579 12.264 13.53C12.264 13.412 12.166 13.332 12.048 13.332H11.025C10.9624 13.333 10.9027 13.3585 10.8586 13.403C10.8145 13.4475 10.7895 13.5074 10.789 13.57Z" fill="#339933"/>
</svg>
