<svg width="80" height="50" viewBox="0 0 80 50" fill="none" xmlns="http://www.w3.org/2000/svg">
<path d="M39.1348 0.464891C34.4797 0.40318 29.9643 2.01742 26.4509 4.99941C22.9374 7.9814 20.672 12.1222 20.0872 16.6313C21.2143 14.7564 22.7954 13.1801 24.6918 12.0407C26.5881 10.9012 28.7419 10.2334 30.9642 10.0958C37.6666 10.0958 42.7658 17.7354 45.8769 20.1179C48.8466 22.4095 52.3554 23.941 56.0849 24.5735C59.8144 25.2061 63.6467 24.9196 67.234 23.7401C75.1706 21.2685 78.8769 12.641 79.6825 8.55001C75.8372 13.8923 69.9999 17.1 62.7817 13.319C57.8094 10.7117 54.0912 6.55651e-06 39.1348 0.464891ZM19.365 24.7125C14.7098 24.6481 10.1935 26.2609 6.67957 29.2426C3.16565 32.2243 0.900588 36.3656 0.317383 40.875C1.44596 38.9981 3.02951 37.4205 4.92885 36.2809C6.82819 35.1413 8.98518 34.4747 11.2102 34.3395C17.9126 34.3395 23.0118 41.9791 26.1229 44.3616C29.0926 46.6532 32.6014 48.1847 36.3309 48.8173C40.0604 49.4498 43.8927 49.1633 47.4801 47.9839C55.4166 45.5122 59.119 36.8847 59.9285 32.7938C56.0793 38.1361 50.2459 41.3476 43.0277 37.5627C38.0555 34.9555 34.3372 24.2244 19.365 24.7125Z" fill="#81CEFE"/>
</svg>
